<svg width="24" height="24" viewBox="0 0 168 150" fill="none" xmlns="http://www.w3.org/2000/svg">
<path d="M168 46.2269C168 21.1322 145.434 0.789665 117.598 0.789665C104.933 0.789665 93.3586 6.98587 84.5043 13.9409C75.5331 6.51682 63.5689 0 50.4306 0C22.5947 0 0.028877 20.3437 0.028877 45.4384C0.028877 46.0689 0.0433585 46.6959 0.0723215 47.3205C-0.439358 55.1958 0.582794 86.4333 44.2204 114.995C79.0955 137.822 83.8732 149.02 83.8732 149.02L83.878 148.74L83.8829 149.02C83.8829 149.02 88.6605 137.822 123.536 114.995C162.19 89.6953 167.406 62.2945 167.738 50.8936C167.912 49.3606 168 47.8038 168 46.2293V46.2269Z" fill="#2275D0"/>
<path d="M57.2504 107V24.4H69.7584V56.85C71.7251 53.7033 74.4784 51.304 78.0184 49.652C81.5584 47.9213 85.2558 47.056 89.1104 47.056C95.8757 47.056 101.343 49.2193 105.512 53.546C109.76 57.794 111.884 64.166 111.884 72.662V107H99.4944V74.196C99.4944 68.9253 98.3144 64.874 95.9544 62.042C93.5944 59.1313 90.0937 57.676 85.4524 57.676C80.7324 57.676 76.9171 59.2887 74.0064 62.514C71.1744 65.6607 69.7584 70.0267 69.7584 75.612V107H57.2504Z" fill="white"/>
</svg>
